<svg aria-hidden="true" style="position: absolute; width: 0; height: 0; overflow: hidden;" version="1.1" xmlns="http://www.w3.org/2000/svg" xmlns:xlink="http://www.w3.org/1999/xlink">
<defs>
<symbol id="icon-play-button" viewBox="0 0 32 32">
<path fill="#4985ff" style="fill: var(--color1, #4985ff)" d="M32 16c0 8.837-7.163 16-16 16s-16-7.163-16-16c0-8.837 7.163-16 16-16s16 7.163 16 16z"></path>
<path fill="#fff" style="fill: var(--color2, #fff)" d="M16 0c-8.836 0-16 7.163-16 16s7.164 16 16 16c8.836 0 16-7.163 16-16s-7.164-16-16-16zM21.53 16.848l-8 5c-0.162 0.101-0.346 0.152-0.53 0.152-0.167 0-0.334-0.041-0.485-0.125-0.318-0.176-0.515-0.511-0.515-0.875v-10c0-0.364 0.197-0.698 0.515-0.874s0.707-0.166 1.015 0.026l8 5c0.292 0.183 0.47 0.503 0.47 0.848s-0.178 0.665-0.47 0.848z"></path>
</symbol>
<symbol id="icon-standards" viewBox="0 0 32 32">
<path d="M12.626 22.425c-0.121 0-0.243-0.042-0.342-0.126l-3.419-2.911c-0.118-0.1-0.186-0.247-0.186-0.402s0.068-0.302 0.186-0.402l3.419-2.911c0.222-0.189 0.555-0.162 0.745 0.060s0.162 0.556-0.060 0.745l-2.946 2.509 2.946 2.509c0.222 0.189 0.249 0.523 0.060 0.745-0.105 0.123-0.253 0.186-0.403 0.186z"></path>
<path d="M19.374 22.425c-0.149 0-0.298-0.063-0.402-0.186-0.189-0.222-0.162-0.555 0.060-0.745l2.946-2.509-2.946-2.509c-0.222-0.189-0.249-0.522-0.060-0.745s0.523-0.249 0.744-0.060l3.419 2.911c0.118 0.1 0.186 0.247 0.186 0.402s-0.068 0.302-0.186 0.402l-3.419 2.911c-0.099 0.085-0.221 0.126-0.342 0.126z"></path>
<path d="M14.79 24.609c-0.036 0-0.073-0.004-0.11-0.012-0.285-0.060-0.468-0.34-0.408-0.626l2.131-10.116c0.060-0.285 0.34-0.468 0.626-0.408s0.468 0.34 0.408 0.626l-2.131 10.116c-0.052 0.249-0.272 0.42-0.516 0.42z"></path>
<path d="M28.453 30.12h-24.906c-1.956 0-3.547-1.591-3.547-3.547v-21.139c0-1.956 1.591-3.547 3.547-3.547h24.906c1.956 0 3.547 1.591 3.547 3.547v21.139c0 1.956-1.591 3.547-3.547 3.547zM3.547 2.944c-1.373 0-2.491 1.117-2.491 2.491v21.139c0 1.373 1.117 2.491 2.491 2.491h24.906c1.373 0 2.491-1.117 2.491-2.491v-21.139c0-1.373-1.117-2.491-2.491-2.491h-24.906z"></path>
<path d="M31.472 10.346h-30.943c-0.292 0-0.528-0.236-0.528-0.528s0.236-0.528 0.528-0.528h30.943c0.292 0 0.528 0.237 0.528 0.528s-0.236 0.528-0.528 0.528z"></path>
<path d="M9.026 7.818c-0.922 0-1.672-0.75-1.672-1.672s0.75-1.672 1.672-1.672c0.922 0 1.672 0.75 1.672 1.672s-0.75 1.672-1.672 1.672zM9.026 5.531c-0.339 0-0.615 0.276-0.615 0.615s0.276 0.615 0.615 0.615c0.339 0 0.615-0.276 0.615-0.615s-0.276-0.615-0.615-0.615z"></path>
<path d="M3.891 7.802c-0.922 0-1.672-0.75-1.672-1.672s0.75-1.672 1.672-1.672c0.922 0 1.672 0.75 1.672 1.672s-0.75 1.672-1.672 1.672zM3.891 5.515c-0.339 0-0.615 0.276-0.615 0.615s0.276 0.615 0.615 0.615c0.339 0 0.615-0.276 0.615-0.615s-0.276-0.615-0.615-0.615z"></path>
<path d="M14.163 7.834c-0.921 0-1.672-0.75-1.672-1.672s0.75-1.672 1.672-1.672c0.922 0 1.672 0.75 1.672 1.672s-0.75 1.672-1.672 1.672zM14.163 5.547c-0.339 0-0.615 0.276-0.615 0.615s0.276 0.615 0.615 0.615c0.339 0 0.615-0.276 0.615-0.615s-0.276-0.615-0.615-0.615z"></path>
</symbol>
<symbol id="icon-mob-apps" viewBox="0 0 33 32">
<path d="M31.866 0h-24c-0.295 0-0.533 0.239-0.533 0.533v8h1.067v-7.467h22.933v29.333c0.005 0.28-0.211 0.515-0.491 0.533-0.046 0-0.092-0.004-0.138-0.005-0.094-0.003-0.189-0.005-0.282-0.014-0.008 0-0.015 0-0.023-0.003-1.742-0.19-3.118-1.565-3.31-3.307 0-0.008-0.003-0.016-0.004-0.023-0.013-0.127-0.019-0.254-0.019-0.381v-1.067c0-0.295-0.239-0.533-0.533-0.533h-18.133v-9.6h-1.067v9.6h-4.267c-0.295 0-0.533 0.239-0.533 0.533v1.067c0.003 2.65 2.15 4.797 4.8 4.8h23.52c0.866-0.023 1.553-0.734 1.547-1.6v-29.867c0-0.295-0.239-0.533-0.533-0.533zM7.333 30.933c-2.061-0.002-3.731-1.672-3.733-3.733v-0.533h22.4v0.533c0.001 0.176 0.011 0.352 0.030 0.526 0.005 0.046 0.014 0.091 0.020 0.137 0.018 0.129 0.039 0.258 0.067 0.384 0.010 0.044 0.022 0.088 0.033 0.132 0.032 0.129 0.069 0.255 0.112 0.38 0.012 0.036 0.025 0.071 0.038 0.107 0.048 0.132 0.103 0.261 0.164 0.389 0.013 0.026 0.025 0.053 0.037 0.077 0.067 0.135 0.14 0.266 0.22 0.394 0.011 0.017 0.020 0.035 0.031 0.053 0.087 0.136 0.181 0.268 0.281 0.395l0.017 0.023c0.116 0.146 0.241 0.286 0.373 0.418 0.115 0.114 0.234 0.22 0.357 0.32l-20.449-0.002z"></path>
<path d="M18 14.933c0.141 0 0.277-0.056 0.377-0.156l2.133-2.133c0.208-0.208 0.208-0.546 0-0.754l-2.133-2.133c-0.1-0.1-0.236-0.156-0.377-0.156h-14.933c-1.473 0-2.667 1.194-2.667 2.667s1.194 2.667 2.667 2.667h14.933zM17.862 10.75l1.517 1.517-1.517 1.517-0.379-1.517 0.379-1.517zM4.667 10.667h12.117l-0.267 1.067h-10.784v1.067h10.784l0.267 1.067h-12.117v-3.2zM1.467 12.267c0-0.884 0.716-1.6 1.6-1.6h0.533v3.2h-0.533c-0.884 0-1.6-0.716-1.6-1.6z"></path>
<path d="M12.666 22.933h16c0.295 0 0.533-0.239 0.533-0.533v-16c-0-0.295-0.239-0.533-0.534-0.533-0.141 0-0.277 0.056-0.377 0.156l-16 16c-0.208 0.208-0.208 0.546 0 0.754 0.1 0.1 0.236 0.156 0.377 0.156zM28.133 7.687v1.379h-1.067v1.067h1.067v1.067h-1.067v1.067h1.067v1.067h-1.067v1.067h1.067v1.067h-1.067v1.067h1.067v1.067h-1.067v1.067h1.067v1.067h-1.067v1.067h1.067v1.067h-1.067v-1.067h-1.067v1.067h-1.067v-1.067h-1.067v1.067h-1.067v-1.067h-1.067v1.067h-1.067v-1.067h-1.067v1.067h-1.067v-1.067h-1.067v1.067h-1.067v-1.067h-1.067v1.067h-1.379l14.179-14.179z"></path>
<path d="M20.393 19.733h5.075c0.294 0 0.533-0.239 0.533-0.533v-5.075c0-0.294-0.239-0.533-0.533-0.533-0.141 0-0.277 0.056-0.377 0.156l-5.075 5.075c-0.208 0.208-0.208 0.546 0 0.754 0.1 0.1 0.236 0.156 0.377 0.156zM24.934 15.413v3.253h-3.253l3.253-3.253z"></path>
<path d="M24.934 3.2h-10.667v1.067h10.667v-1.067z"></path>
<path d="M26.534 5.333h-13.867v1.067h13.867v-1.067z"></path>
<path d="M12.667 16.533h-3.2v1.067h3.2v-1.067z"></path>
<path d="M11.6 18.667h-2.133v1.067h2.133v-1.067z"></path>
</symbol>
<symbol id="icon-right-arrow" viewBox="0 0 32 32">
<path fill="#999" style="fill: var(--color1, #999)" d="M10.016 30.080c-0.192 0.192-0.448 0.288-0.736 0.288-0.256 0-0.512-0.096-0.704-0.288-0.416-0.416-0.416-1.056 0-1.44l12.64-12.64-12.64-12.672c-0.416-0.384-0.416-1.024 0-1.44 0.384-0.384 1.024-0.384 1.44 0l13.376 13.376c0.384 0.384 0.384 1.056 0 1.44l-13.376 13.376z"></path>
</symbol>
<symbol id="icon-maps" viewBox="0 0 32 32">
<path fill="#999" style="fill: var(--color1, #999)" d="M15.979 0c-6.485 0-11.733 5.248-11.733 11.712 0 2.965 1.856 7.168 5.547 12.48 2.709 3.883 5.355 6.891 5.483 7.019l0.704 0.789 0.683-0.789c0.107-0.128 2.773-3.136 5.461-7.019 3.691-5.312 5.568-9.515 5.568-12.48 0-6.464-5.248-11.712-11.712-11.712zM20.608 23.104c-1.835 2.624-3.669 4.885-4.629 6.037-0.981-1.152-2.816-3.392-4.629-6.016-3.435-4.928-5.248-8.853-5.248-11.413 0-5.44 4.437-9.856 9.877-9.856 5.419 0 9.835 4.416 9.835 9.856 0 2.539-1.792 6.485-5.205 11.392z"></path>
<path fill="#999" style="fill: var(--color1, #999)" d="M15.957 4.331c-3.819 0-6.912 3.093-6.912 6.912s3.093 6.933 6.912 6.933c3.819 0 6.933-3.115 6.933-6.933s-3.115-6.912-6.933-6.912zM15.957 16.299c-2.773 0-5.035-2.261-5.035-5.056 0-2.773 2.261-5.056 5.035-5.056 2.795 0 5.056 2.283 5.056 5.056 0 2.795-2.261 5.056-5.056 5.056z"></path>
</symbol>
<symbol id="icon-call" viewBox="0 0 32 32">
<path fill="#999" style="fill: var(--color1, #999)" d="M31.147 24.683l-6.464-4.331c-0.832-0.533-1.941-0.363-2.539 0.405l-1.877 2.432c-0.256 0.32-0.704 0.427-1.045 0.213l-0.363-0.192c-1.195-0.64-2.667-1.451-5.653-4.437s-3.797-4.459-4.437-5.653l-0.192-0.363c-0.192-0.341-0.107-0.789 0.213-1.024l2.411-1.899c0.789-0.597 0.96-1.707 0.427-2.517l-4.331-6.485c-0.555-0.832-1.664-1.088-2.517-0.576l-2.709 1.621c-0.853 0.512-1.493 1.323-1.749 2.261-0.981 3.563-0.235 9.685 8.789 18.731 7.189 7.189 12.544 9.109 16.213 9.109 0.853 0.021 1.685-0.107 2.517-0.32 0.939-0.256 1.749-0.896 2.24-1.749l1.643-2.688c0.512-0.875 0.277-1.984-0.576-2.539zM30.805 26.667l-1.621 2.709c-0.363 0.619-0.939 1.067-1.643 1.259-3.264 0.896-9.003 0.149-17.685-8.512-8.661-8.683-9.408-14.421-8.512-17.685 0.192-0.683 0.64-1.28 1.259-1.643l2.709-1.621c0.384-0.213 0.853-0.107 1.109 0.256l4.309 6.464c0.235 0.363 0.149 0.832-0.171 1.109l-2.432 1.877c-0.747 0.576-0.939 1.6-0.491 2.389l0.192 0.363c0.683 1.237 1.536 2.795 4.608 5.888 3.115 3.093 4.651 3.947 5.909 4.629l0.341 0.192c0.811 0.448 1.835 0.235 2.411-0.491l1.877-2.432c0.277-0.341 0.747-0.405 1.109-0.171l6.464 4.309c0.363 0.256 0.469 0.725 0.256 1.109z"></path>
<path fill="#999" style="fill: var(--color1, #999)" d="M18.133 5.333c4.992 0 9.045 4.053 9.067 9.067 0 0.277 0.235 0.533 0.533 0.533 0.277 0 0.533-0.256 0.533-0.533-0.021-5.611-4.544-10.133-10.133-10.133-0.299 0-0.533 0.235-0.533 0.533 0 0.277 0.235 0.533 0.533 0.533z"></path>
<path fill="#999" style="fill: var(--color1, #999)" d="M18.133 8.533c3.221 0 5.845 2.624 5.867 5.867 0 0.277 0.235 0.533 0.533 0.533 0.277 0 0.533-0.256 0.533-0.533-0.021-3.84-3.115-6.933-6.933-6.933-0.299 0-0.533 0.235-0.533 0.533 0 0.277 0.235 0.533 0.533 0.533z"></path>
<path fill="#999" style="fill: var(--color1, #999)" d="M18.133 11.733c1.451 0 2.645 1.195 2.667 2.667 0 0.277 0.235 0.533 0.533 0.533 0.277 0 0.533-0.256 0.533-0.533-0.021-2.069-1.685-3.733-3.733-3.733-0.299 0-0.533 0.235-0.533 0.533 0 0.277 0.235 0.533 0.533 0.533z"></path>
</symbol>
<symbol id="icon-mail" viewBox="0 0 32 32">
<path fill="#999" style="fill: var(--color1, #999)" d="M28.075 4.267h-24.171c-2.155 0-3.904 1.749-3.904 3.904v16.533c0 2.155 1.749 3.904 3.904 3.904h24.171c2.155 0 3.925-1.749 3.925-3.904v-16.533c0-2.155-1.771-3.904-3.925-3.904zM30.208 24.704c0 1.173-0.96 2.112-2.133 2.112h-24.171c-1.173 0-2.133-0.939-2.133-2.112v-16.533c0-1.173 0.96-2.112 2.133-2.112h24.171c1.173 0 2.133 0.939 2.133 2.112v16.533z"></path>
<path fill="#999" style="fill: var(--color1, #999)" d="M20.181 16.235l7.808-7.019c0.363-0.341 0.405-0.896 0.085-1.28-0.341-0.363-0.896-0.384-1.28-0.064l-10.795 9.685-2.091-1.877c-0.021 0-0.021 0-0.021-0.021-0.043-0.043-0.085-0.085-0.149-0.128l-8.576-7.659c-0.363-0.341-0.917-0.299-1.259 0.064-0.32 0.384-0.299 0.939 0.085 1.28l7.915 7.061-7.893 7.381c-0.363 0.341-0.363 0.917-0.043 1.28 0.192 0.171 0.427 0.277 0.661 0.277 0.213 0 0.448-0.085 0.619-0.235l8-7.488 2.176 1.941c0.171 0.149 0.384 0.213 0.597 0.213 0.192 0 0.427-0.064 0.597-0.213l2.219-2.005 7.957 7.552c0.171 0.171 0.405 0.256 0.619 0.256 0.235 0 0.469-0.107 0.661-0.277 0.32-0.363 0.32-0.939-0.043-1.28l-7.851-7.445z"></path>
</symbol>
</defs>
</svg>
